<svg width="248" height="248" viewBox="0 0 248 248" fill="none" xmlns="http://www.w3.org/2000/svg">
<mask id="mask0_11_194" style="mask-type:alpha" maskUnits="userSpaceOnUse" x="16" y="108" width="161" height="100">
<path d="M176.203 159.533V108.959H162.824C151.814 108.959 141.242 113.267 133.367 120.962L111.573 142.261C103.699 149.956 93.1262 154.265 82.1163 154.265H16.0536V208H33.3663C44.5439 208 55.2637 203.56 63.1674 195.656L86.9463 171.877C94.8501 163.973 105.57 159.533 116.747 159.533H176.203Z" fill="url(#paint0_linear_11_194)"/>
</mask>
<g mask="url(#mask0_11_194)">
<path d="M15.5981 142.535H20.3392V207.725H15.5981V142.535Z" fill="#D9D9D9"/>
<path d="M15.5981 142.535H20.3392V207.725H15.5981V142.535Z" fill="url(#paint1_linear_11_194)"/>
<path d="M22.7098 142.535H27.4509V207.725H22.7098V142.535Z" fill="#D9D9D9"/>
<path d="M22.7098 142.535H27.4509V207.725H22.7098V142.535Z" fill="url(#paint2_linear_11_194)"/>
<path d="M29.8214 142.535H34.5625V207.725H29.8214V142.535Z" fill="#D9D9D9"/>
<path d="M29.8214 142.535H34.5625V207.725H29.8214V142.535Z" fill="url(#paint3_linear_11_194)"/>
<path d="M36.9331 154.388H41.6742V207.725H36.9331V154.388Z" fill="#D9D9D9"/>
<path d="M36.9331 154.388H41.6742V207.725H36.9331V154.388Z" fill="url(#paint4_linear_11_194)"/>
<path d="M44.0447 154.388H48.7858V206.54H44.0447V154.388Z" fill="#D9D9D9"/>
<path d="M44.0447 154.388H48.7858V206.54H44.0447V154.388Z" fill="url(#paint5_linear_11_194)"/>
<path d="M51.1564 154.388H55.8974V204.17H51.1564V154.388Z" fill="#D9D9D9"/>
<path d="M51.1564 154.388H55.8974V204.17H51.1564V154.388Z" fill="url(#paint6_linear_11_194)"/>
<path d="M58.268 154.388H63.0091V199.428H58.268V154.388Z" fill="#D9D9D9"/>
<path d="M58.268 154.388H63.0091V199.428H58.268V154.388Z" fill="url(#paint7_linear_11_194)"/>
<path d="M65.3796 154.388H70.1207V193.502H65.3796V154.388Z" fill="#D9D9D9"/>
<path d="M65.3796 154.388H70.1207V193.502H65.3796V154.388Z" fill="url(#paint8_linear_11_194)"/>
<path d="M72.4913 154.388H77.2324V186.39H72.4913V154.388Z" fill="#D9D9D9"/>
<path d="M72.4913 154.388H77.2324V186.39H72.4913V154.388Z" fill="url(#paint9_linear_11_194)"/>
<path d="M79.6029 154.388H84.344V179.279H79.6029V154.388Z" fill="#D9D9D9"/>
<path d="M79.6029 154.388H84.344V179.279H79.6029V154.388Z" fill="url(#paint10_linear_11_194)"/>
<path d="M86.7146 153.203H91.4557V172.167H86.7146V153.203Z" fill="#D9D9D9"/>
<path d="M86.7146 153.203H91.4557V172.167H86.7146V153.203Z" fill="url(#paint11_linear_11_194)"/>
<path d="M93.8262 150.832H98.5673V166.241H93.8262V150.832Z" fill="#D9D9D9"/>
<path d="M93.8262 150.832H98.5673V166.241H93.8262V150.832Z" fill="url(#paint12_linear_11_194)"/>
<path d="M100.938 147.276H105.679V162.685H100.938V147.276Z" fill="#D9D9D9"/>
<path d="M100.938 147.276H105.679V162.685H100.938V147.276Z" fill="url(#paint13_linear_11_194)"/>
<path d="M108.049 140.165H112.791V160.314H108.049V140.165Z" fill="#D9D9D9"/>
<path d="M108.049 140.165H112.791V160.314H108.049V140.165Z" fill="url(#paint14_linear_11_194)"/>
<path d="M115.161 134.238H119.902V160.314H115.161V134.238Z" fill="#D9D9D9"/>
<path d="M115.161 134.238H119.902V160.314H115.161V134.238Z" fill="url(#paint15_linear_11_194)"/>
<path d="M122.273 127.127H127.014V160.314H122.273V127.127Z" fill="#D9D9D9"/>
<path d="M122.273 127.127H127.014V160.314H122.273V127.127Z" fill="url(#paint16_linear_11_194)"/>
<path d="M129.384 120.015H134.126V160.314H129.384V120.015Z" fill="#D9D9D9"/>
<path d="M129.384 120.015H134.126V160.314H129.384V120.015Z" fill="url(#paint17_linear_11_194)"/>
<path d="M136.496 114.089H141.237V160.314H136.496V114.089Z" fill="#D9D9D9"/>
<path d="M136.496 114.089H141.237V160.314H136.496V114.089Z" fill="url(#paint18_linear_11_194)"/>
<path d="M143.608 111.718H148.349V160.314H143.608V111.718Z" fill="#D9D9D9"/>
<path d="M143.608 111.718H148.349V160.314H143.608V111.718Z" fill="url(#paint19_linear_11_194)"/>
<path d="M150.719 109.348H155.46V160.314H150.719V109.348Z" fill="#D9D9D9"/>
<path d="M150.719 109.348H155.46V160.314H150.719V109.348Z" fill="url(#paint20_linear_11_194)"/>
<path d="M157.831 109.348H162.572V160.314H157.831V109.348Z" fill="#D9D9D9"/>
<path d="M157.831 109.348H162.572V160.314H157.831V109.348Z" fill="url(#paint21_linear_11_194)"/>
<path d="M164.943 109.348H169.684V160.314H164.943V109.348Z" fill="#D9D9D9"/>
<path d="M164.943 109.348H169.684V160.314H164.943V109.348Z" fill="url(#paint22_linear_11_194)"/>
<path d="M172.054 109.348H176.795V160.314H172.054V109.348Z" fill="#D9D9D9"/>
<path d="M172.054 109.348H176.795V160.314H172.054V109.348Z" fill="url(#paint23_linear_11_194)"/>
</g>
<mask id="mask1_11_194" style="mask-type:alpha" maskUnits="userSpaceOnUse" x="15" y="41" width="219" height="100">
<path d="M233.101 90.5206V41H186.287C175.109 41 164.39 45.4403 156.486 53.3441L134.814 75.0157C126.911 82.9194 116.191 87.3597 105.013 87.3597H15V140.041H56.8054C67.8294 140.041 78.4145 135.722 86.2913 128.009L112.289 102.553C120.166 94.84 130.751 90.5206 141.775 90.5206H233.101Z" fill="url(#paint24_linear_11_194)"/>
</mask>
<g mask="url(#mask1_11_194)">
<rect x="15.5981" y="86.8274" width="4.74109" height="53.3373" fill="#D9D9D9"/>
<rect x="15.5981" y="86.8274" width="4.74109" height="53.3373" fill="url(#paint25_linear_11_194)"/>
<rect x="22.7098" y="86.8274" width="4.74109" height="53.3373" fill="#D9D9D9"/>
<rect x="22.7098" y="86.8274" width="4.74109" height="53.3373" fill="url(#paint26_linear_11_194)"/>
<rect x="29.8214" y="86.8274" width="4.74109" height="53.3373" fill="#D9D9D9"/>
<rect x="29.8214" y="86.8274" width="4.74109" height="53.3373" fill="url(#paint27_linear_11_194)"/>
<rect x="36.933" y="86.8274" width="4.74109" height="53.3373" fill="#D9D9D9"/>
<rect x="36.933" y="86.8274" width="4.74109" height="53.3373" fill="url(#paint28_linear_11_194)"/>
<rect x="44.0447" y="86.8274" width="4.74109" height="53.3373" fill="#D9D9D9"/>
<rect x="44.0447" y="86.8274" width="4.74109" height="53.3373" fill="url(#paint29_linear_11_194)"/>
<rect x="51.1563" y="86.8274" width="4.74109" height="53.3373" fill="#D9D9D9"/>
<rect x="51.1563" y="86.8274" width="4.74109" height="53.3373" fill="url(#paint30_linear_11_194)"/>
<rect x="58.2679" y="86.8274" width="4.74109" height="53.3373" fill="#D9D9D9"/>
<rect x="58.2679" y="86.8274" width="4.74109" height="53.3373" fill="url(#paint31_linear_11_194)"/>
<rect x="65.3796" y="86.8274" width="4.74109" height="53.3373" fill="#D9D9D9"/>
<rect x="65.3796" y="86.8274" width="4.74109" height="53.3373" fill="url(#paint32_linear_11_194)"/>
<rect x="72.4913" y="85.6423" width="4.74109" height="54.5226" fill="#D9D9D9"/>
<rect x="72.4913" y="85.6423" width="4.74109" height="54.5226" fill="url(#paint33_linear_11_194)"/>
<rect x="79.6029" y="86.8274" width="4.74109" height="53.3373" fill="#D9D9D9"/>
<rect x="79.6029" y="86.8274" width="4.74109" height="53.3373" fill="url(#paint34_linear_11_194)"/>
<rect x="86.7145" y="84.457" width="4.74109" height="55.7079" fill="#D9D9D9"/>
<rect x="86.7145" y="84.457" width="4.74109" height="55.7079" fill="url(#paint35_linear_11_194)"/>
<rect x="93.8262" y="76.1599" width="4.74109" height="46.2257" fill="#D9D9D9"/>
<rect x="93.8262" y="76.1599" width="4.74109" height="46.2257" fill="url(#paint36_linear_11_194)"/>
<rect x="100.938" y="76.1599" width="4.74109" height="42.6698" fill="#D9D9D9"/>
<rect x="100.938" y="76.1599" width="4.74109" height="42.6698" fill="url(#paint37_linear_11_194)"/>
<rect x="108.049" y="76.1599" width="4.74109" height="39.114" fill="#D9D9D9"/>
<rect x="108.049" y="76.1599" width="4.74109" height="39.114" fill="url(#paint38_linear_11_194)"/>
<rect x="115.161" y="76.1599" width="4.74109" height="35.5582" fill="#D9D9D9"/>
<rect x="115.161" y="76.1599" width="4.74109" height="35.5582" fill="url(#paint39_linear_11_194)"/>
<rect x="122.273" y="76.1599" width="4.74109" height="33.1877" fill="#D9D9D9"/>
<rect x="122.273" y="76.1599" width="4.74109" height="33.1877" fill="url(#paint40_linear_11_194)"/>
<rect x="129.384" y="76.1599" width="4.74109" height="32.0024" fill="#D9D9D9"/>
<rect x="129.384" y="76.1599" width="4.74109" height="32.0024" fill="url(#paint41_linear_11_194)"/>
<rect x="136.496" y="67.863" width="4.74109" height="23.7055" fill="#D9D9D9"/>
<rect x="136.496" y="67.863" width="4.74109" height="23.7055" fill="url(#paint42_linear_11_194)"/>
<rect x="143.608" y="60.7515" width="4.74109" height="30.8171" fill="#D9D9D9"/>
<rect x="143.608" y="60.7515" width="4.74109" height="30.8171" fill="url(#paint43_linear_11_194)"/>
<rect x="150.719" y="53.6399" width="4.74109" height="36.7435" fill="#D9D9D9"/>
<rect x="150.719" y="53.6399" width="4.74109" height="36.7435" fill="url(#paint44_linear_11_194)"/>
<rect x="157.831" y="44.1576" width="4.74109" height="46.2257" fill="#D9D9D9"/>
<rect x="157.831" y="44.1576" width="4.74109" height="46.2257" fill="url(#paint45_linear_11_194)"/>
<rect x="164.943" y="44.1576" width="4.74109" height="46.2257" fill="#D9D9D9"/>
<rect x="164.943" y="44.1576" width="4.74109" height="46.2257" fill="url(#paint46_linear_11_194)"/>
<rect x="172.054" y="40.6018" width="4.74109" height="49.7815" fill="#D9D9D9"/>
<rect x="172.054" y="40.6018" width="4.74109" height="49.7815" fill="url(#paint47_linear_11_194)"/>
<rect x="179.166" y="40.6018" width="4.74109" height="49.7815" fill="#D9D9D9"/>
<rect x="179.166" y="40.6018" width="4.74109" height="49.7815" fill="url(#paint48_linear_11_194)"/>
<rect x="186.278" y="40.6018" width="4.74109" height="49.7815" fill="#D9D9D9"/>
<rect x="186.278" y="40.6018" width="4.74109" height="49.7815" fill="url(#paint49_linear_11_194)"/>
<rect x="193.389" y="40.6018" width="4.74109" height="49.7815" fill="#D9D9D9"/>
<rect x="193.389" y="40.6018" width="4.74109" height="49.7815" fill="url(#paint50_linear_11_194)"/>
<rect x="200.501" y="40.6018" width="4.74109" height="49.7815" fill="#D9D9D9"/>
<rect x="200.501" y="40.6018" width="4.74109" height="49.7815" fill="url(#paint51_linear_11_194)"/>
<rect x="207.612" y="40.6018" width="4.74109" height="49.7815" fill="#D9D9D9"/>
<rect x="207.612" y="40.6018" width="4.74109" height="49.7815" fill="url(#paint52_linear_11_194)"/>
<rect x="214.724" y="40.6018" width="4.74109" height="49.7815" fill="#D9D9D9"/>
<rect x="214.724" y="40.6018" width="4.74109" height="49.7815" fill="url(#paint53_linear_11_194)"/>
<rect x="221.836" y="40.6018" width="4.74109" height="49.7815" fill="#D9D9D9"/>
<rect x="221.836" y="40.6018" width="4.74109" height="49.7815" fill="url(#paint54_linear_11_194)"/>
<rect x="228.947" y="40.6018" width="4.74109" height="49.7815" fill="#D9D9D9"/>
<rect x="228.947" y="40.6018" width="4.74109" height="49.7815" fill="url(#paint55_linear_11_194)"/>
</g>
<defs>
<linearGradient id="paint0_linear_11_194" x1="95.0758" y1="108.959" x2="123.508" y2="204.948" gradientUnits="userSpaceOnUse">
<stop stop-color="#7BDBFE"/>
<stop offset="1" stop-color="#0772DB"/>
</linearGradient>
<linearGradient id="paint1_linear_11_194" x1="174.425" y1="109.348" x2="164.245" y2="111.351" gradientUnits="userSpaceOnUse">
<stop stop-color="#7BDBFE"/>
<stop offset="1" stop-color="#0772DB"/>
</linearGradient>
<linearGradient id="paint2_linear_11_194" x1="174.425" y1="109.348" x2="164.245" y2="111.351" gradientUnits="userSpaceOnUse">
<stop stop-color="#7BDBFE"/>
<stop offset="1" stop-color="#0772DB"/>
</linearGradient>
<linearGradient id="paint3_linear_11_194" x1="174.425" y1="109.348" x2="164.245" y2="111.351" gradientUnits="userSpaceOnUse">
<stop stop-color="#7BDBFE"/>
<stop offset="1" stop-color="#0772DB"/>
</linearGradient>
<linearGradient id="paint4_linear_11_194" x1="174.425" y1="109.348" x2="164.245" y2="111.351" gradientUnits="userSpaceOnUse">
<stop stop-color="#7BDBFE"/>
<stop offset="1" stop-color="#0772DB"/>
</linearGradient>
<linearGradient id="paint5_linear_11_194" x1="174.425" y1="109.348" x2="164.245" y2="111.351" gradientUnits="userSpaceOnUse">
<stop stop-color="#7BDBFE"/>
<stop offset="1" stop-color="#0772DB"/>
</linearGradient>
<linearGradient id="paint6_linear_11_194" x1="174.425" y1="109.348" x2="164.245" y2="111.351" gradientUnits="userSpaceOnUse">
<stop stop-color="#7BDBFE"/>
<stop offset="1" stop-color="#0772DB"/>
</linearGradient>
<linearGradient id="paint7_linear_11_194" x1="174.425" y1="109.348" x2="164.245" y2="111.351" gradientUnits="userSpaceOnUse">
<stop stop-color="#7BDBFE"/>
<stop offset="1" stop-color="#0772DB"/>
</linearGradient>
<linearGradient id="paint8_linear_11_194" x1="174.425" y1="109.348" x2="164.245" y2="111.351" gradientUnits="userSpaceOnUse">
<stop stop-color="#7BDBFE"/>
<stop offset="1" stop-color="#0772DB"/>
</linearGradient>
<linearGradient id="paint9_linear_11_194" x1="174.425" y1="109.348" x2="164.245" y2="111.351" gradientUnits="userSpaceOnUse">
<stop stop-color="#7BDBFE"/>
<stop offset="1" stop-color="#0772DB"/>
</linearGradient>
<linearGradient id="paint10_linear_11_194" x1="174.425" y1="109.348" x2="164.245" y2="111.351" gradientUnits="userSpaceOnUse">
<stop stop-color="#7BDBFE"/>
<stop offset="1" stop-color="#0772DB"/>
</linearGradient>
<linearGradient id="paint11_linear_11_194" x1="174.425" y1="109.348" x2="164.245" y2="111.351" gradientUnits="userSpaceOnUse">
<stop stop-color="#7BDBFE"/>
<stop offset="1" stop-color="#0772DB"/>
</linearGradient>
<linearGradient id="paint12_linear_11_194" x1="174.425" y1="109.348" x2="164.245" y2="111.351" gradientUnits="userSpaceOnUse">
<stop stop-color="#7BDBFE"/>
<stop offset="1" stop-color="#0772DB"/>
</linearGradient>
<linearGradient id="paint13_linear_11_194" x1="174.425" y1="109.348" x2="164.245" y2="111.351" gradientUnits="userSpaceOnUse">
<stop stop-color="#7BDBFE"/>
<stop offset="1" stop-color="#0772DB"/>
</linearGradient>
<linearGradient id="paint14_linear_11_194" x1="174.425" y1="109.348" x2="164.245" y2="111.351" gradientUnits="userSpaceOnUse">
<stop stop-color="#7BDBFE"/>
<stop offset="1" stop-color="#0772DB"/>
</linearGradient>
<linearGradient id="paint15_linear_11_194" x1="174.425" y1="109.348" x2="164.245" y2="111.351" gradientUnits="userSpaceOnUse">
<stop stop-color="#7BDBFE"/>
<stop offset="1" stop-color="#0772DB"/>
</linearGradient>
<linearGradient id="paint16_linear_11_194" x1="174.425" y1="109.348" x2="164.245" y2="111.351" gradientUnits="userSpaceOnUse">
<stop stop-color="#7BDBFE"/>
<stop offset="1" stop-color="#0772DB"/>
</linearGradient>
<linearGradient id="paint17_linear_11_194" x1="174.425" y1="109.348" x2="164.245" y2="111.351" gradientUnits="userSpaceOnUse">
<stop stop-color="#7BDBFE"/>
<stop offset="1" stop-color="#0772DB"/>
</linearGradient>
<linearGradient id="paint18_linear_11_194" x1="174.425" y1="109.348" x2="164.245" y2="111.351" gradientUnits="userSpaceOnUse">
<stop stop-color="#7BDBFE"/>
<stop offset="1" stop-color="#0772DB"/>
</linearGradient>
<linearGradient id="paint19_linear_11_194" x1="174.425" y1="109.348" x2="164.245" y2="111.351" gradientUnits="userSpaceOnUse">
<stop stop-color="#7BDBFE"/>
<stop offset="1" stop-color="#0772DB"/>
</linearGradient>
<linearGradient id="paint20_linear_11_194" x1="174.425" y1="109.348" x2="164.245" y2="111.351" gradientUnits="userSpaceOnUse">
<stop stop-color="#7BDBFE"/>
<stop offset="1" stop-color="#0772DB"/>
</linearGradient>
<linearGradient id="paint21_linear_11_194" x1="174.425" y1="109.348" x2="164.245" y2="111.351" gradientUnits="userSpaceOnUse">
<stop stop-color="#7BDBFE"/>
<stop offset="1" stop-color="#0772DB"/>
</linearGradient>
<linearGradient id="paint22_linear_11_194" x1="174.425" y1="109.348" x2="164.245" y2="111.351" gradientUnits="userSpaceOnUse">
<stop stop-color="#7BDBFE"/>
<stop offset="1" stop-color="#0772DB"/>
</linearGradient>
<linearGradient id="paint23_linear_11_194" x1="174.425" y1="109.348" x2="164.245" y2="111.351" gradientUnits="userSpaceOnUse">
<stop stop-color="#7BDBFE"/>
<stop offset="1" stop-color="#0772DB"/>
</linearGradient>
<linearGradient id="paint24_linear_11_194" x1="124.051" y1="41" x2="145.474" y2="140.812" gradientUnits="userSpaceOnUse">
<stop stop-color="#7BDBFE"/>
<stop offset="1" stop-color="#0772DB"/>
</linearGradient>
<linearGradient id="paint25_linear_11_194" x1="17.9687" y1="86.8274" x2="7.75548" y2="88.7481" gradientUnits="userSpaceOnUse">
<stop stop-color="#7BDBFE"/>
<stop offset="1" stop-color="#0772DB"/>
</linearGradient>
<linearGradient id="paint26_linear_11_194" x1="25.0803" y1="86.8274" x2="14.8671" y2="88.7481" gradientUnits="userSpaceOnUse">
<stop stop-color="#7BDBFE"/>
<stop offset="1" stop-color="#0772DB"/>
</linearGradient>
<linearGradient id="paint27_linear_11_194" x1="32.192" y1="86.8274" x2="21.9788" y2="88.7481" gradientUnits="userSpaceOnUse">
<stop stop-color="#7BDBFE"/>
<stop offset="1" stop-color="#0772DB"/>
</linearGradient>
<linearGradient id="paint28_linear_11_194" x1="39.3036" y1="86.8274" x2="29.0904" y2="88.7481" gradientUnits="userSpaceOnUse">
<stop stop-color="#7BDBFE"/>
<stop offset="1" stop-color="#0772DB"/>
</linearGradient>
<linearGradient id="paint29_linear_11_194" x1="46.4152" y1="86.8274" x2="36.202" y2="88.7481" gradientUnits="userSpaceOnUse">
<stop stop-color="#7BDBFE"/>
<stop offset="1" stop-color="#0772DB"/>
</linearGradient>
<linearGradient id="paint30_linear_11_194" x1="53.5269" y1="86.8274" x2="43.3137" y2="88.7481" gradientUnits="userSpaceOnUse">
<stop stop-color="#7BDBFE"/>
<stop offset="1" stop-color="#0772DB"/>
</linearGradient>
<linearGradient id="paint31_linear_11_194" x1="60.6385" y1="86.8274" x2="50.4253" y2="88.7481" gradientUnits="userSpaceOnUse">
<stop stop-color="#7BDBFE"/>
<stop offset="1" stop-color="#0772DB"/>
</linearGradient>
<linearGradient id="paint32_linear_11_194" x1="67.7502" y1="86.8274" x2="57.537" y2="88.7481" gradientUnits="userSpaceOnUse">
<stop stop-color="#7BDBFE"/>
<stop offset="1" stop-color="#0772DB"/>
</linearGradient>
<linearGradient id="paint33_linear_11_194" x1="74.8618" y1="85.6423" x2="64.6336" y2="87.524" gradientUnits="userSpaceOnUse">
<stop stop-color="#7BDBFE"/>
<stop offset="1" stop-color="#0772DB"/>
</linearGradient>
<linearGradient id="paint34_linear_11_194" x1="81.9735" y1="86.8274" x2="71.7602" y2="88.7481" gradientUnits="userSpaceOnUse">
<stop stop-color="#7BDBFE"/>
<stop offset="1" stop-color="#0772DB"/>
</linearGradient>
<linearGradient id="paint35_linear_11_194" x1="89.0851" y1="84.457" x2="78.8427" y2="86.3012" gradientUnits="userSpaceOnUse">
<stop stop-color="#7BDBFE"/>
<stop offset="1" stop-color="#0772DB"/>
</linearGradient>
<linearGradient id="paint36_linear_11_194" x1="96.1967" y1="76.1599" x2="86.0978" y2="78.3513" gradientUnits="userSpaceOnUse">
<stop stop-color="#7BDBFE"/>
<stop offset="1" stop-color="#0772DB"/>
</linearGradient>
<linearGradient id="paint37_linear_11_194" x1="103.308" y1="76.1599" x2="93.2877" y2="78.5155" gradientUnits="userSpaceOnUse">
<stop stop-color="#7BDBFE"/>
<stop offset="1" stop-color="#0772DB"/>
</linearGradient>
<linearGradient id="paint38_linear_11_194" x1="110.42" y1="76.1599" x2="100.498" y2="78.7043" gradientUnits="userSpaceOnUse">
<stop stop-color="#7BDBFE"/>
<stop offset="1" stop-color="#0772DB"/>
</linearGradient>
<linearGradient id="paint39_linear_11_194" x1="117.532" y1="76.1599" x2="107.737" y2="78.923" gradientUnits="userSpaceOnUse">
<stop stop-color="#7BDBFE"/>
<stop offset="1" stop-color="#0772DB"/>
</linearGradient>
<linearGradient id="paint40_linear_11_194" x1="124.643" y1="76.1599" x2="114.954" y2="79.0884" gradientUnits="userSpaceOnUse">
<stop stop-color="#7BDBFE"/>
<stop offset="1" stop-color="#0772DB"/>
</linearGradient>
<linearGradient id="paint41_linear_11_194" x1="131.755" y1="76.1599" x2="122.126" y2="79.1778" gradientUnits="userSpaceOnUse">
<stop stop-color="#7BDBFE"/>
<stop offset="1" stop-color="#0772DB"/>
</linearGradient>
<linearGradient id="paint42_linear_11_194" x1="138.867" y1="67.863" x2="129.898" y2="71.658" gradientUnits="userSpaceOnUse">
<stop stop-color="#7BDBFE"/>
<stop offset="1" stop-color="#0772DB"/>
</linearGradient>
<linearGradient id="paint43_linear_11_194" x1="145.978" y1="60.7515" x2="136.417" y2="63.8636" gradientUnits="userSpaceOnUse">
<stop stop-color="#7BDBFE"/>
<stop offset="1" stop-color="#0772DB"/>
</linearGradient>
<linearGradient id="paint44_linear_11_194" x1="153.09" y1="53.6399" x2="143.249" y2="56.3264" gradientUnits="userSpaceOnUse">
<stop stop-color="#7BDBFE"/>
<stop offset="1" stop-color="#0772DB"/>
</linearGradient>
<linearGradient id="paint45_linear_11_194" x1="160.201" y1="44.1576" x2="150.103" y2="46.349" gradientUnits="userSpaceOnUse">
<stop stop-color="#7BDBFE"/>
<stop offset="1" stop-color="#0772DB"/>
</linearGradient>
<linearGradient id="paint46_linear_11_194" x1="167.313" y1="44.1576" x2="157.214" y2="46.349" gradientUnits="userSpaceOnUse">
<stop stop-color="#7BDBFE"/>
<stop offset="1" stop-color="#0772DB"/>
</linearGradient>
<linearGradient id="paint47_linear_11_194" x1="174.425" y1="40.6018" x2="164.263" y2="42.6493" gradientUnits="userSpaceOnUse">
<stop stop-color="#7BDBFE"/>
<stop offset="1" stop-color="#0772DB"/>
</linearGradient>
<linearGradient id="paint48_linear_11_194" x1="181.536" y1="40.6018" x2="171.375" y2="42.6493" gradientUnits="userSpaceOnUse">
<stop stop-color="#7BDBFE"/>
<stop offset="1" stop-color="#0772DB"/>
</linearGradient>
<linearGradient id="paint49_linear_11_194" x1="188.648" y1="40.6018" x2="178.486" y2="42.6493" gradientUnits="userSpaceOnUse">
<stop stop-color="#7BDBFE"/>
<stop offset="1" stop-color="#0772DB"/>
</linearGradient>
<linearGradient id="paint50_linear_11_194" x1="195.76" y1="40.6018" x2="185.598" y2="42.6493" gradientUnits="userSpaceOnUse">
<stop stop-color="#7BDBFE"/>
<stop offset="1" stop-color="#0772DB"/>
</linearGradient>
<linearGradient id="paint51_linear_11_194" x1="202.871" y1="40.6018" x2="192.709" y2="42.6493" gradientUnits="userSpaceOnUse">
<stop stop-color="#7BDBFE"/>
<stop offset="1" stop-color="#0772DB"/>
</linearGradient>
<linearGradient id="paint52_linear_11_194" x1="209.983" y1="40.6018" x2="199.821" y2="42.6493" gradientUnits="userSpaceOnUse">
<stop stop-color="#7BDBFE"/>
<stop offset="1" stop-color="#0772DB"/>
</linearGradient>
<linearGradient id="paint53_linear_11_194" x1="217.095" y1="40.6018" x2="206.933" y2="42.6493" gradientUnits="userSpaceOnUse">
<stop stop-color="#7BDBFE"/>
<stop offset="1" stop-color="#0772DB"/>
</linearGradient>
<linearGradient id="paint54_linear_11_194" x1="224.206" y1="40.6018" x2="214.044" y2="42.6493" gradientUnits="userSpaceOnUse">
<stop stop-color="#7BDBFE"/>
<stop offset="1" stop-color="#0772DB"/>
</linearGradient>
<linearGradient id="paint55_linear_11_194" x1="231.318" y1="40.6018" x2="221.156" y2="42.6493" gradientUnits="userSpaceOnUse">
<stop stop-color="#7BDBFE"/>
<stop offset="1" stop-color="#0772DB"/>
</linearGradient>
</defs>
</svg>
