<svg width="376" height="82" viewBox="0 0 376 82" fill="none" xmlns="http://www.w3.org/2000/svg">
<mask id="mask0_13_47" style="mask-type:alpha" maskUnits="userSpaceOnUse" x="0" y="33" width="79" height="49">
<path d="M78.7195 57.8828V33.186H72.1864C66.81 33.186 61.6471 35.2899 57.802 39.0477L47.1592 49.4486C43.314 53.2063 38.1511 55.3102 32.7747 55.3102H0.514519V81.5505H8.96876C14.4271 81.5505 19.6618 79.3822 23.5214 75.5225L35.1333 63.9107C38.9929 60.0511 44.2277 57.8828 49.686 57.8828H78.7195Z" fill="url(#paint0_linear_13_47)"/>
</mask>
<g mask="url(#mask0_13_47)">
<path d="M0.292099 49.5824H2.6073V81.4164H0.292099V49.5824Z" fill="#092841"/>
<path d="M3.7649 49.5824H6.0801V81.4164H3.7649V49.5824Z" fill="#092841"/>
<path d="M7.2377 49.5824H9.55291V81.4164H7.2377V49.5824Z" fill="#092841"/>
<path d="M10.7105 55.3704H13.0257V81.4164H10.7105V55.3704Z" fill="#092841"/>
<path d="M14.1833 55.3704H16.4985V80.8376H14.1833V55.3704Z" fill="#092841"/>
<path d="M17.6561 55.3704H19.9713V79.68H17.6561V55.3704Z" fill="#092841"/>
<path d="M21.1289 55.3704H23.4441V77.3648H21.1289V55.3704Z" fill="#092841"/>
<path d="M24.6017 55.3704H26.9169V74.4708H24.6017V55.3704Z" fill="#092841"/>
<path d="M28.0745 55.3704H30.3897V70.998H28.0745V55.3704Z" fill="#092841"/>
<path d="M31.5473 55.3704H33.8625V67.5252H31.5473V55.3704Z" fill="#092841"/>
<path d="M35.0201 54.7916H37.3353V64.0524H35.0201V54.7916Z" fill="#092841"/>
<path d="M38.4929 53.634H40.8081V61.1584H38.4929V53.634Z" fill="#092841"/>
<path d="M41.9657 51.8976H44.2809V59.422H41.9657V51.8976Z" fill="#092841"/>
<path d="M45.4385 48.4248H47.7537V58.2644H45.4385V48.4248Z" fill="#092841"/>
<path d="M48.9113 45.5308H51.2265V58.2644H48.9113V45.5308Z" fill="#092841"/>
<path d="M52.3841 42.058H54.6993V58.2644H52.3841V42.058Z" fill="#092841"/>
<path d="M55.8569 38.5852H58.1721V58.2644H55.8569V38.5852Z" fill="#092841"/>
<path d="M59.3297 35.6912H61.6449V58.2644H59.3297V35.6912Z" fill="#092841"/>
<path d="M62.8025 34.5336H65.1177V58.2644H62.8025V34.5336Z" fill="#092841"/>
<path d="M66.2753 33.376H68.5905V58.2644H66.2753V33.376Z" fill="#092841"/>
<path d="M69.7481 33.376H72.0633V58.2644H69.7481V33.376Z" fill="#092841"/>
<path d="M73.2209 33.376H75.5361V58.2644H73.2209V33.376Z" fill="#092841"/>
<path d="M76.6937 33.376H79.009V58.2644H76.6937V33.376Z" fill="#092841"/>
</g>
<mask id="mask1_13_47" style="mask-type:alpha" maskUnits="userSpaceOnUse" x="0" y="0" width="107" height="49">
<path d="M106.505 24.1822V0H83.644C78.1857 0 72.9509 2.16831 69.0913 6.02792L58.5085 16.6108C54.6489 20.4704 49.4141 22.6387 43.9558 22.6387H7.62939e-06V48.3644H20.4147C25.798 48.3644 30.967 46.2552 34.8134 42.4889L47.509 30.0578C51.3554 26.2915 56.5244 24.1822 61.9077 24.1822H106.505Z" fill="url(#paint1_linear_13_47)"/>
</mask>
<g mask="url(#mask1_13_47)">
<rect x="0.292099" y="22.3787" width="2.3152" height="26.046" fill="#092841"/>
<rect x="3.76491" y="22.3787" width="2.3152" height="26.046" fill="#092841"/>
<rect x="7.2377" y="22.3787" width="2.3152" height="26.046" fill="#092841"/>
<rect x="10.7105" y="22.3787" width="2.3152" height="26.046" fill="#092841"/>
<rect x="14.1833" y="22.3787" width="2.3152" height="26.046" fill="#092841"/>
<rect x="17.6561" y="22.3787" width="2.3152" height="26.046" fill="#092841"/>
<rect x="21.1289" y="22.3787" width="2.3152" height="26.046" fill="#092841"/>
<rect x="24.6017" y="22.3787" width="2.3152" height="26.046" fill="#092841"/>
<rect x="28.0745" y="21.8" width="2.3152" height="26.6248" fill="#092841"/>
<rect x="31.5473" y="22.3787" width="2.3152" height="26.046" fill="#092841"/>
<rect x="35.0201" y="21.2212" width="2.3152" height="27.2036" fill="#092841"/>
<rect x="38.4929" y="17.1697" width="2.3152" height="22.5732" fill="#092841"/>
<rect x="41.9657" y="17.1697" width="2.3152" height="20.8368" fill="#092841"/>
<rect x="45.4385" y="17.1697" width="2.3152" height="19.1004" fill="#092841"/>
<rect x="48.9113" y="17.1697" width="2.3152" height="17.364" fill="#092841"/>
<rect x="52.3841" y="17.1697" width="2.3152" height="16.2064" fill="#092841"/>
<rect x="55.8569" y="17.1697" width="2.3152" height="15.6276" fill="#092841"/>
<rect x="59.3297" y="13.1179" width="2.3152" height="11.576" fill="#092841"/>
<rect x="62.8026" y="9.64526" width="2.3152" height="15.0488" fill="#092841"/>
<rect x="66.2753" y="6.17236" width="2.3152" height="17.9428" fill="#092841"/>
<rect x="69.7481" y="1.54199" width="2.3152" height="22.5732" fill="#092841"/>
<rect x="73.2209" y="1.54199" width="2.3152" height="22.5732" fill="#092841"/>
<rect x="76.6938" y="-0.194336" width="2.3152" height="24.3096" fill="#092841"/>
<rect x="80.1666" y="-0.194336" width="2.3152" height="24.3096" fill="#092841"/>
<rect x="83.6393" y="-0.194336" width="2.3152" height="24.3096" fill="#092841"/>
<rect x="87.1122" y="-0.194336" width="2.3152" height="24.3096" fill="#092841"/>
<rect x="90.585" y="-0.194336" width="2.3152" height="24.3096" fill="#092841"/>
<rect x="94.0578" y="-0.194336" width="2.3152" height="24.3096" fill="#092841"/>
<rect x="97.5306" y="-0.194336" width="2.3152" height="24.3096" fill="#092841"/>
<rect x="101.003" y="-0.194336" width="2.3152" height="24.3096" fill="#092841"/>
<rect x="104.476" y="-0.194336" width="2.3152" height="24.3096" fill="#092841"/>
</g>
<path d="M156.321 12.2001L177.953 57.0001H168.225L162.785 45.6721H136.481L131.041 57.0001H121.505L143.073 12.2001H156.321ZM149.857 18.6641H149.473L140.001 38.3121H159.265L149.857 18.6641Z" fill="#092841"/>
<path d="M182.498 12.2001H190.498V18.4721H182.498V12.2001ZM182.498 23.0801H190.498V57.0001H182.498V23.0801Z" fill="#092841"/>
<path d="M217.787 23.0801H220.219V30.0561H216.187C212.518 30.0561 209.809 30.6961 208.059 31.9761C206.31 33.2561 205.435 35.6241 205.435 39.0801V57.0001H197.435V23.0801H205.435V28.7761H205.691C206.459 26.7707 207.803 25.3201 209.723 24.4241C211.686 23.5281 214.374 23.0801 217.787 23.0801Z" fill="#092841"/>
<path d="M232.435 12.2001V57.0001H224.435V12.2001H232.435Z" fill="#092841"/>
<path d="M274.893 23.0801L254.349 67.8801H245.901L251.469 56.8721L235.917 23.0801H244.493L255.565 47.7841H255.949L266.701 23.0801H274.893Z" fill="#092841"/>
<path d="M301.414 50.7281V57.0001H296.294C291.516 57.0001 288.166 56.1467 286.246 54.4401C284.369 52.6907 283.43 49.7041 283.43 45.4801V29.3521H275.686V23.0801H283.43V12.2001H291.43V23.0801H301.414V29.3521H291.43V43.8801C291.43 46.7387 291.942 48.5947 292.966 49.4481C293.99 50.3014 295.974 50.7281 298.918 50.7281H301.414Z" fill="#092841"/>
<path d="M306.873 12.2001H314.873V18.4721H306.873V12.2001ZM306.873 23.0801H314.873V57.0001H306.873V23.0801Z" fill="#092841"/>
<path d="M375.122 49.3841V57.0001H345.49C337.085 57.0001 331.048 55.3787 327.378 52.1361C323.752 48.8934 321.938 43.5601 321.938 36.1361V32.6161C321.938 25.1921 323.752 19.8374 327.378 16.5521C331.048 13.2241 337.085 11.5601 345.49 11.5601H349.842C358.162 11.5601 364.157 13.2241 367.826 16.5521C371.538 19.8801 373.394 25.0214 373.394 31.9761V34.6641C373.394 42.4294 370.791 47.1867 365.586 48.9361V49.3841H375.122ZM346.514 49.5121H349.01C352.21 49.4694 354.834 49.1707 356.882 48.6161C358.973 48.0614 360.573 47.1441 361.682 45.8641C362.792 44.5841 363.538 43.1121 363.922 41.4481C364.349 39.7841 364.562 37.6507 364.562 35.0481V33.5121C364.562 30.9094 364.349 28.7761 363.922 27.1121C363.495 25.4054 362.706 23.9334 361.554 22.6961C360.402 21.4161 358.781 20.4987 356.69 19.9441C354.642 19.3894 352.018 19.0907 348.818 19.0481H346.514C343.272 19.0907 340.605 19.3894 338.514 19.9441C336.466 20.4987 334.866 21.4161 333.714 22.6961C332.605 23.9761 331.837 25.4481 331.41 27.1121C330.984 28.7761 330.77 30.9094 330.77 33.5121V35.0481C330.77 37.6507 330.984 39.7841 331.41 41.4481C331.837 43.1121 332.605 44.5841 333.714 45.8641C334.866 47.1441 336.466 48.0614 338.514 48.6161C340.605 49.1707 343.272 49.4694 346.514 49.5121Z" fill="#092841"/>
<defs>
<linearGradient id="paint0_linear_13_47" x1="39.1032" y1="33.186" x2="52.9874" y2="80.06" gradientUnits="userSpaceOnUse">
<stop stop-color="#7BDBFE"/>
<stop offset="1" stop-color="#0772DB"/>
</linearGradient>
<linearGradient id="paint1_linear_13_47" x1="53.2523" y1="0" x2="63.7141" y2="48.741" gradientUnits="userSpaceOnUse">
<stop stop-color="#7BDBFE"/>
<stop offset="1" stop-color="#0772DB"/>
</linearGradient>
</defs>
</svg>
