<?xml version="1.0" encoding="UTF-8"?>
<svg version="1.1" xmlns="http://www.w3.org/2000/svg" width="16" height="16">
<path d="M0 0 C5.28 0 10.56 0 16 0 C16 5.28 16 10.56 16 16 C10.72 16 5.44 16 0 16 C0 10.72 0 5.44 0 0 Z " fill="#D7EDFB" transform="translate(0,0)"/>
<path d="M0 0 C2.31 0 4.62 0 7 0 C7 3.96 7 7.92 7 12 C1.72 12 -3.56 12 -9 12 C-9 10.68 -9 9.36 -9 8 C-4.77050005 5.58314288 -1.87664009 4.65166856 3 5 C3 3.68 3 2.36 3 1 C2.01 0.67 1.02 0.34 0 0 Z " fill="#FCFDFE" transform="translate(9,4)"/>
<path d="M0 0 C0.99 0 1.98 0 3 0 C3 1.32 3 2.64 3 4 C0.33333333 4.66666667 -2.33333333 5.33333333 -5 6 C-5.74765625 6.18691406 -6.4953125 6.37382812 -7.265625 6.56640625 C-7.83796875 6.70949219 -8.4103125 6.85257813 -9 7 C-9 5.68 -9 4.36 -9 3 C-7.88625 2.87625 -6.7725 2.7525 -5.625 2.625 C-1.96896323 2.3534187 -1.96896323 2.3534187 0 0 Z " fill="#68A8E8" transform="translate(9,5)"/>
<path d="M0 0 C3.63 0 7.26 0 11 0 C10.01 1.485 10.01 1.485 9 3 C6.8359375 3.29296875 6.8359375 3.29296875 4.375 3.1875 C3.55773437 3.16042969 2.74046875 3.13335937 1.8984375 3.10546875 C1.27195313 3.07066406 0.64546875 3.03585937 0 3 C0 2.01 0 1.02 0 0 Z " fill="#FBFDFE" transform="translate(0,0)"/>
<path d="M0 0 C1.65 0 3.3 0 5 0 C5 1.32 5 2.64 5 4 C2.69 4 0.38 4 -2 4 C-1.34 2.68 -0.68 1.36 0 0 Z " fill="#7AC0F1" transform="translate(11,0)"/>
<path d="M0 0 C2.31 0 4.62 0 7 0 C6.01 1.485 6.01 1.485 5 3 C2.375 3.1875 2.375 3.1875 0 3 C0 2.01 0 1.02 0 0 Z " fill="#76BEF1" transform="translate(0,4)"/>
</svg>
