<svg width="512" height="512" viewBox="0 0 512 512" fill="none" xmlns="http://www.w3.org/2000/svg">
<path d="M162.621 204.41C150.457 183.551 154.137 162.984 159.166 152.945C141.441 166.929 142.716 187.87 149.234 205.426C155.661 222.739 170.514 235.096 181.448 249.978C209.328 287.92 197.951 325.146 186.844 340.977C215.635 315.889 214.176 284.494 204.654 259.975C196.175 238.141 174.42 224.643 162.621 204.41Z" fill="#7398FF"/>
<path d="M136.722 218.583C129.514 203.47 132.485 189.2 136.406 181.873C122.785 191.931 122.166 206.444 126.165 219.514C131.579 237.212 147.818 248.821 158.415 263.994C178.895 293.317 169.487 321.48 160.293 333.745C182.853 315.346 183.892 292.748 177.74 273.919C170.525 251.837 146.724 239.551 136.722 218.583Z" fill="#7398FF"/>
<path d="M482 256C482 380.816 380.816 482 256 482C131.184 482 30 380.816 30 256C30 131.184 131.184 30 256 30C380.816 30 482 131.184 482 256ZM66.5166 256C66.5166 360.649 151.351 445.483 256 445.483C360.649 445.483 445.483 360.649 445.483 256C445.483 151.351 360.649 66.5166 256 66.5166C151.351 66.5166 66.5166 151.351 66.5166 256Z" fill="#0E517E"/>
<path d="M482 256C482 380.816 380.816 482 256 482C131.184 482 30 380.816 30 256C30 131.184 131.184 30 256 30C380.816 30 482 131.184 482 256ZM66.5166 256C66.5166 360.649 151.351 445.483 256 445.483C360.649 445.483 445.483 360.649 445.483 256C445.483 151.351 360.649 66.5166 256 66.5166C151.351 66.5166 66.5166 151.351 66.5166 256Z" fill="url(#paint0_linear_321_811)"/>
<path d="M482 256C482 380.816 380.816 482 256 482C131.184 482 30 380.816 30 256C30 131.184 131.184 30 256 30C380.816 30 482 131.184 482 256ZM66.5166 256C66.5166 360.649 151.351 445.483 256 445.483C360.649 445.483 445.483 360.649 445.483 256C445.483 151.351 360.649 66.5166 256 66.5166C151.351 66.5166 66.5166 151.351 66.5166 256Z" fill="url(#paint1_radial_321_811)" fill-opacity="0.2"/>
<path d="M248.429 232.948C305.761 180.889 318.358 101.364 324.05 72.5417C324.833 68.5787 326.556 64.8839 329.264 62.0174C331.366 59.7938 334.564 59.2029 337.256 60.5411L375.448 79.5257C390.841 87.1775 404.216 98.7045 414.396 113.092L436.923 144.932C453.406 168.229 463.72 195.734 466.805 224.625L468.208 237.759C470.447 258.723 469.19 279.938 464.493 300.444C457.621 330.448 444.515 358.466 426.122 382.468L422.49 387.208C408.12 405.961 390.41 421.623 370.059 432.598C356.613 439.85 348.744 453.305 345.948 453.524C339.972 453.993 332.83 462.554 325.156 457.14C318.669 452.564 306.728 411.078 305.121 398.16C304.708 394.843 306.493 391.895 309.332 390.406C328.228 380.491 403.804 337.715 400.64 331.936C398.018 327.148 368.091 368.237 333.781 366.55C318.785 365.812 292.539 363.317 295.329 348.563C295.969 345.176 297.132 341.47 297.786 338.029C299.722 327.856 299.513 318.964 298.44 312.005C297.036 302.906 291.261 298.957 283.232 295.324C213.902 263.957 233.218 246.759 248.429 232.948Z" fill="#0E517E"/>
<path d="M248.429 232.948C305.761 180.889 318.358 101.364 324.05 72.5417C324.833 68.5787 326.556 64.8839 329.264 62.0174C331.366 59.7938 334.564 59.2029 337.256 60.5411L375.448 79.5257C390.841 87.1775 404.216 98.7045 414.396 113.092L436.923 144.932C453.406 168.229 463.72 195.734 466.805 224.625L468.208 237.759C470.447 258.723 469.19 279.938 464.493 300.444C457.621 330.448 444.515 358.466 426.122 382.468L422.49 387.208C408.12 405.961 390.41 421.623 370.059 432.598C356.613 439.85 348.744 453.305 345.948 453.524C339.972 453.993 332.83 462.554 325.156 457.14C318.669 452.564 306.728 411.078 305.121 398.16C304.708 394.843 306.493 391.895 309.332 390.406C328.228 380.491 403.804 337.715 400.64 331.936C398.018 327.148 368.091 368.237 333.781 366.55C318.785 365.812 292.539 363.317 295.329 348.563C295.969 345.176 297.132 341.47 297.786 338.029C299.722 327.856 299.513 318.964 298.44 312.005C297.036 302.906 291.261 298.957 283.232 295.324C213.902 263.957 233.218 246.759 248.429 232.948Z" fill="url(#paint2_linear_321_811)"/>
<path d="M248.429 232.948C305.761 180.889 318.358 101.364 324.05 72.5417C324.833 68.5787 326.556 64.8839 329.264 62.0174C331.366 59.7938 334.564 59.2029 337.256 60.5411L375.448 79.5257C390.841 87.1775 404.216 98.7045 414.396 113.092L436.923 144.932C453.406 168.229 463.72 195.734 466.805 224.625L468.208 237.759C470.447 258.723 469.19 279.938 464.493 300.444C457.621 330.448 444.515 358.466 426.122 382.468L422.49 387.208C408.12 405.961 390.41 421.623 370.059 432.598C356.613 439.85 348.744 453.305 345.948 453.524C339.972 453.993 332.83 462.554 325.156 457.14C318.669 452.564 306.728 411.078 305.121 398.16C304.708 394.843 306.493 391.895 309.332 390.406C328.228 380.491 403.804 337.715 400.64 331.936C398.018 327.148 368.091 368.237 333.781 366.55C318.785 365.812 292.539 363.317 295.329 348.563C295.969 345.176 297.132 341.47 297.786 338.029C299.722 327.856 299.513 318.964 298.44 312.005C297.036 302.906 291.261 298.957 283.232 295.324C213.902 263.957 233.218 246.759 248.429 232.948Z" fill="url(#paint3_radial_321_811)" fill-opacity="0.2"/>
<path d="M482 256C482 380.816 380.816 482 256 482C131.184 482 30 380.816 30 256C30 131.184 131.184 30 256 30C380.816 30 482 131.184 482 256ZM66.5166 256C66.5166 360.649 151.351 445.483 256 445.483C360.649 445.483 445.483 360.649 445.483 256C445.483 151.351 360.649 66.5166 256 66.5166C151.351 66.5166 66.5166 151.351 66.5166 256Z" stroke="url(#paint4_linear_321_811)" stroke-width="12.656"/>
<path d="M482 256C482 380.816 380.816 482 256 482C131.184 482 30 380.816 30 256C30 131.184 131.184 30 256 30C380.816 30 482 131.184 482 256ZM66.5166 256C66.5166 360.649 151.351 445.483 256 445.483C360.649 445.483 445.483 360.649 445.483 256C445.483 151.351 360.649 66.5166 256 66.5166C151.351 66.5166 66.5166 151.351 66.5166 256Z" stroke="url(#paint5_linear_321_811)" stroke-width="12.656"/>
<path d="M482 256C482 380.816 380.816 482 256 482C131.184 482 30 380.816 30 256C30 131.184 131.184 30 256 30C380.816 30 482 131.184 482 256ZM66.5166 256C66.5166 360.649 151.351 445.483 256 445.483C360.649 445.483 445.483 360.649 445.483 256C445.483 151.351 360.649 66.5166 256 66.5166C151.351 66.5166 66.5166 151.351 66.5166 256Z" stroke="url(#paint6_radial_321_811)" stroke-opacity="0.2" stroke-width="12.656"/>
<path d="M248.429 232.948C305.761 180.889 318.358 101.364 324.05 72.5417C324.833 68.5787 326.556 64.8839 329.264 62.0174C331.366 59.7938 334.564 59.2029 337.256 60.5411L375.448 79.5257C390.841 87.1775 404.216 98.7045 414.396 113.092L436.923 144.932C453.406 168.229 463.72 195.734 466.805 224.625L468.208 237.759C470.447 258.723 469.19 279.938 464.493 300.444C457.621 330.448 444.515 358.466 426.122 382.468L422.49 387.208C408.12 405.961 390.41 421.623 370.059 432.598C356.613 439.85 348.744 453.305 345.948 453.524C339.972 453.993 332.83 462.554 325.156 457.14C318.669 452.564 306.728 411.078 305.121 398.16C304.708 394.843 306.493 391.895 309.332 390.406C328.228 380.491 403.804 337.715 400.64 331.936C398.018 327.148 368.091 368.237 333.781 366.55C318.785 365.812 292.539 363.317 295.329 348.563C295.969 345.176 297.132 341.47 297.786 338.029C299.722 327.856 299.513 318.964 298.44 312.005C297.036 302.906 291.261 298.957 283.232 295.324C213.902 263.957 233.218 246.759 248.429 232.948Z" stroke="url(#paint7_linear_321_811)" stroke-width="12.656"/>
<path d="M248.429 232.948C305.761 180.889 318.358 101.364 324.05 72.5417C324.833 68.5787 326.556 64.8839 329.264 62.0174C331.366 59.7938 334.564 59.2029 337.256 60.5411L375.448 79.5257C390.841 87.1775 404.216 98.7045 414.396 113.092L436.923 144.932C453.406 168.229 463.72 195.734 466.805 224.625L468.208 237.759C470.447 258.723 469.19 279.938 464.493 300.444C457.621 330.448 444.515 358.466 426.122 382.468L422.49 387.208C408.12 405.961 390.41 421.623 370.059 432.598C356.613 439.85 348.744 453.305 345.948 453.524C339.972 453.993 332.83 462.554 325.156 457.14C318.669 452.564 306.728 411.078 305.121 398.16C304.708 394.843 306.493 391.895 309.332 390.406C328.228 380.491 403.804 337.715 400.64 331.936C398.018 327.148 368.091 368.237 333.781 366.55C318.785 365.812 292.539 363.317 295.329 348.563C295.969 345.176 297.132 341.47 297.786 338.029C299.722 327.856 299.513 318.964 298.44 312.005C297.036 302.906 291.261 298.957 283.232 295.324C213.902 263.957 233.218 246.759 248.429 232.948Z" stroke="url(#paint8_linear_321_811)" stroke-width="12.656"/>
<path d="M248.429 232.948C305.761 180.889 318.358 101.364 324.05 72.5417C324.833 68.5787 326.556 64.8839 329.264 62.0174C331.366 59.7938 334.564 59.2029 337.256 60.5411L375.448 79.5257C390.841 87.1775 404.216 98.7045 414.396 113.092L436.923 144.932C453.406 168.229 463.72 195.734 466.805 224.625L468.208 237.759C470.447 258.723 469.19 279.938 464.493 300.444C457.621 330.448 444.515 358.466 426.122 382.468L422.49 387.208C408.12 405.961 390.41 421.623 370.059 432.598C356.613 439.85 348.744 453.305 345.948 453.524C339.972 453.993 332.83 462.554 325.156 457.14C318.669 452.564 306.728 411.078 305.121 398.16C304.708 394.843 306.493 391.895 309.332 390.406C328.228 380.491 403.804 337.715 400.64 331.936C398.018 327.148 368.091 368.237 333.781 366.55C318.785 365.812 292.539 363.317 295.329 348.563C295.969 345.176 297.132 341.47 297.786 338.029C299.722 327.856 299.513 318.964 298.44 312.005C297.036 302.906 291.261 298.957 283.232 295.324C213.902 263.957 233.218 246.759 248.429 232.948Z" stroke="url(#paint9_radial_321_811)" stroke-opacity="0.2" stroke-width="12.656"/>
<circle cx="366.306" cy="189.99" r="19.0599" fill="#251B67" stroke="#251B67" stroke-width="0.719241"/>
<circle cx="412.329" cy="149.714" r="12.5867" fill="#251B67" stroke="#251B67" stroke-width="0.719241"/>
<circle cx="366.308" cy="132.451" r="12.5867" fill="#251B67" stroke="#251B67" stroke-width="0.719241"/>
<circle cx="321.349" cy="173.087" r="10.0694" fill="#251B67" stroke="#251B67" stroke-width="0.719241"/>
<circle cx="332.14" cy="229.908" r="10.0694" fill="#251B67" stroke="#251B67" stroke-width="0.719241"/>
<path d="M415.281 214.648V227.181L404.429 233.445L393.576 227.181V214.648L404.429 208.384L415.281 214.648Z" fill="#251B67" stroke="#251B67" stroke-width="0.719241"/>
<line x1="377.77" y1="181.153" x2="405.42" y2="156.247" stroke="#251B67" stroke-width="5.03469"/>
<line x1="367.148" y1="173.319" x2="366.18" y2="136.119" stroke="#251B67" stroke-width="5.03469"/>
<line x1="358.69" y1="188.575" x2="324.963" y2="172.85" stroke="#251B67" stroke-width="5.03469"/>
<line x1="359.834" y1="197.419" x2="335.102" y2="225.225" stroke="#251B67" stroke-width="5.03469"/>
<line x1="371.675" y1="191.8" x2="398.099" y2="218.003" stroke="#251B67" stroke-width="5.03469"/>
<defs>
<linearGradient id="paint0_linear_321_811" x1="351.569" y1="59.832" x2="571.24" y2="388.224" gradientUnits="userSpaceOnUse">
<stop stop-color="#5E89FF"/>
<stop offset="1" stop-color="#160142"/>
</linearGradient>
<radialGradient id="paint1_radial_321_811" cx="0" cy="0" r="1" gradientTransform="matrix(86.5707 389.624 -132.431 254.699 264.998 59.832)" gradientUnits="userSpaceOnUse">
<stop stop-color="white"/>
<stop offset="1" stop-color="white" stop-opacity="0"/>
</radialGradient>
<linearGradient id="paint2_linear_321_811" x1="351.569" y1="59.832" x2="571.24" y2="388.224" gradientUnits="userSpaceOnUse">
<stop stop-color="#5E89FF"/>
<stop offset="1" stop-color="#160142"/>
</linearGradient>
<radialGradient id="paint3_radial_321_811" cx="0" cy="0" r="1" gradientTransform="matrix(86.5707 389.624 -132.431 254.699 264.998 59.832)" gradientUnits="userSpaceOnUse">
<stop stop-color="white"/>
<stop offset="1" stop-color="white" stop-opacity="0"/>
</radialGradient>
<linearGradient id="paint4_linear_321_811" x1="351.569" y1="59.832" x2="571.24" y2="388.224" gradientUnits="userSpaceOnUse">
<stop stop-color="#00A2E0"/>
<stop offset="1" stop-color="#00264B"/>
</linearGradient>
<linearGradient id="paint5_linear_321_811" x1="351.569" y1="59.832" x2="571.24" y2="388.224" gradientUnits="userSpaceOnUse">
<stop stop-color="#5E89FF"/>
<stop offset="1" stop-color="#160142"/>
</linearGradient>
<radialGradient id="paint6_radial_321_811" cx="0" cy="0" r="1" gradientTransform="matrix(86.5707 389.624 -132.431 254.699 264.998 59.832)" gradientUnits="userSpaceOnUse">
<stop stop-color="white"/>
<stop offset="1" stop-color="white" stop-opacity="0"/>
</radialGradient>
<linearGradient id="paint7_linear_321_811" x1="351.569" y1="59.832" x2="571.24" y2="388.224" gradientUnits="userSpaceOnUse">
<stop stop-color="#00A2E0"/>
<stop offset="1" stop-color="#00264B"/>
</linearGradient>
<linearGradient id="paint8_linear_321_811" x1="351.569" y1="59.832" x2="571.24" y2="388.224" gradientUnits="userSpaceOnUse">
<stop stop-color="#5E89FF"/>
<stop offset="1" stop-color="#160142"/>
</linearGradient>
<radialGradient id="paint9_radial_321_811" cx="0" cy="0" r="1" gradientTransform="matrix(86.5707 389.624 -132.431 254.699 264.998 59.832)" gradientUnits="userSpaceOnUse">
<stop stop-color="white"/>
<stop offset="1" stop-color="white" stop-opacity="0"/>
</radialGradient>
</defs>
</svg>
